<?xml version="1.0" encoding="UTF-8" standalone="no"?>
<svg
   xmlns:dc="http://purl.org/dc/elements/1.1/"
   xmlns:cc="http://creativecommons.org/ns#"
   xmlns:rdf="http://www.w3.org/1999/02/22-rdf-syntax-ns#"
   xmlns:svg="http://www.w3.org/2000/svg"
   xmlns="http://www.w3.org/2000/svg"
   xmlns:sodipodi="http://sodipodi.sourceforge.net/DTD/sodipodi-0.dtd"
   xmlns:inkscape="http://www.inkscape.org/namespaces/inkscape"
   width="400"
   height="43"
   viewBox="0 0 400 43"
   version="1.1"
   id="svg27"
   sodipodi:docname="hearst_corp.svg"
   inkscape:version="1.0.2 (e86c8708, 2021-01-15)">
  <metadata
     id="metadata33">
    <rdf:RDF>
      <cc:Work
         rdf:about="">
        <dc:format>image/svg+xml</dc:format>
        <dc:type
           rdf:resource="http://purl.org/dc/dcmitype/StillImage" />
      </cc:Work>
    </rdf:RDF>
  </metadata>
  <defs
     id="defs31" />
  <sodipodi:namedview
     pagecolor="#ffffff"
     bordercolor="#666666"
     borderopacity="1"
     objecttolerance="10"
     gridtolerance="10"
     guidetolerance="10"
     inkscape:pageopacity="0"
     inkscape:pageshadow="2"
     inkscape:window-width="810"
     inkscape:window-height="480"
     id="namedview29"
     showgrid="false"
     inkscape:zoom="3.06"
     inkscape:cx="204.57516"
     inkscape:cy="34.571895"
     inkscape:window-x="0"
     inkscape:window-y="0"
     inkscape:window-maximized="0"
     inkscape:current-layer="svg27" />
  <title
     id="title21">hearstcorp</title>
  <g
     id="g25"
     style="fill:#ffffff">
    <path
       d="M 0.334,19.967 V 9.616 c 0,-0.735 0.133,-1.002 1.002,-1.002 2.203,0.067 4.407,0.067 6.677,0 0.668,0 0.935,0.2 0.935,0.868 -0.067,2.004 0,4.007 0,6.01 0,0.601 0.2,0.869 0.802,0.802 a 17.826,17.826 0 0 1 2.67,0 c 0.668,0 0.869,-0.2 0.869,-0.802 v -6.01 c 0,-0.667 0.2,-0.868 0.868,-0.868 2.204,0.067 4.407,0 6.678,0 0.668,0 0.868,0.134 0.868,0.868 v 20.969 c 0,0.6 -0.2,0.868 -0.801,0.801 -2.27,0 -4.475,-0.067 -6.745,0 -0.735,0 -0.868,-0.267 -0.868,-0.935 V 23.64 c 0,-0.734 -0.267,-1.068 -1.002,-1.001 a 16.09,16.09 0 0 1 -2.537,0 c -0.535,0 -0.735,0.2 -0.735,0.734 v 6.878 c 0,0.668 -0.2,0.935 -0.935,0.935 -2.27,-0.066 -4.54,0 -6.811,0 -0.668,0 -0.802,-0.2 -0.802,-0.868 C 0.334,26.979 0.334,23.44 0.334,19.968 Z m 122.604,-0.268 0.802,0.268 c 1.736,0.4 2.67,1.536 3.005,3.205 0.333,1.803 0.534,3.673 0.8,5.543 0.134,0.667 0.268,1.335 0.402,1.936 0.133,0.468 0,0.668 -0.468,0.668 -2.47,0 -4.941,0 -7.479,-0.067 -0.2,0 -0.601,-0.4 -0.668,-0.734 -0.334,-1.603 -0.534,-3.206 -0.801,-4.808 -0.067,-0.468 -0.2,-0.935 -0.334,-1.403 -0.4,-1.068 -1.736,-1.736 -2.738,-1.335 -0.2,0.066 -0.4,0.534 -0.4,0.801 0,2.137 -0.067,4.34 0,6.477 0,0.802 -0.2,1.002 -1.002,1.002 -2.204,-0.067 -4.408,0 -6.678,0 -0.668,0 -0.868,-0.133 -0.868,-0.868 V 9.416 c 0,-0.601 0.2,-0.868 0.801,-0.802 4.34,0 8.681,-0.066 12.955,0.067 1.402,0.067 2.872,0.334 4.207,0.868 2.404,0.868 2.938,3.072 2.805,5.209 -0.134,2.404 -1.536,3.873 -3.673,4.608 -0.134,0.066 -0.334,0.2 -0.668,0.333 z m -7.88,-3.94 v 1.737 c 0,0.2 0.134,0.467 0.268,0.534 1.068,0.534 3.205,-0.534 3.539,-1.67 0.467,-1.669 -0.468,-2.737 -2.404,-2.87 -1.403,-0.068 -1.403,-0.068 -1.403,1.335 V 15.76 Z M 93.69,31.453 h -8.347 c -0.668,0 -0.935,-0.2 -1.068,-0.868 -0.134,-0.734 -0.334,-1.402 -0.4,-2.137 -0.068,-0.534 -0.335,-0.734 -0.869,-0.734 -1.803,0.067 -3.606,0 -5.342,0 -0.534,0 -0.802,0.133 -0.935,0.734 -0.134,0.869 -0.334,1.67 -0.601,2.471 -0.067,0.2 -0.4,0.468 -0.601,0.468 h -7.68 c -0.066,0 -0.066,-0.067 -0.2,-0.134 0.2,-0.734 0.468,-1.402 0.668,-2.137 2.137,-6.544 4.34,-13.088 6.477,-19.633 0.2,-0.667 0.535,-0.868 1.202,-0.868 h 9.817 c 0.534,0 0.801,0.134 1.001,0.668 2.27,7.212 4.541,14.491 6.812,21.703 0.066,0.134 0.066,0.2 0.066,0.467 z M 82.539,22.238 c -0.668,-3.005 -1.27,-5.943 -1.937,-8.881 h -0.267 c -0.668,2.938 -1.336,5.876 -2.07,8.881 z m 62.504,1.937 h 3.272 c 0.4,0 0.734,0.066 0.734,0.6 0.067,0.869 0.401,1.537 1.27,1.737 0.934,0.2 1.936,0.267 2.737,-0.468 0.935,-0.868 0.534,-2.47 -0.734,-2.938 -1.47,-0.534 -3.005,-0.868 -4.541,-1.335 -1.069,-0.334 -2.137,-0.668 -3.139,-1.136 -4.608,-2.003 -4.073,-8.28 -0.868,-10.484 1.67,-1.135 3.54,-1.67 5.476,-1.803 2.27,-0.2 4.54,-0.267 6.744,0.4 2.137,0.669 4.007,1.737 4.474,4.074 0.401,2.004 0.668,1.87 -1.402,1.87 h -4.875 c -0.6,0 -0.935,-0.133 -1.135,-0.801 -0.267,-1.002 -1.335,-1.403 -2.47,-1.135 -0.936,0.2 -1.403,0.868 -1.336,1.803 0.067,0.8 0.6,1.135 1.269,1.335 1.402,0.4 2.871,0.668 4.207,1.135 1.402,0.468 2.804,0.935 4.073,1.603 2.404,1.202 3.005,3.606 2.671,5.943 -0.467,3.54 -2.671,5.543 -5.943,6.411 -3.806,1.002 -7.546,0.935 -11.152,-0.735 -2.337,-1.068 -3.406,-3.005 -3.472,-5.475 0,-0.468 0.2,-0.735 0.734,-0.735 1.135,0.2 2.27,0.134 3.406,0.134 z M 37.663,19.968 V 9.549 c 0,-0.734 0.201,-0.935 0.936,-0.935 h 15.225 c 0.735,0 0.935,0.2 0.935,0.935 a 38.767,38.767 0 0 0 0,3.94 c 0,0.601 -0.2,0.868 -0.801,0.801 h -6.879 c -0.667,0 -0.934,0.2 -0.934,0.935 0,2.204 -0.134,1.803 1.803,1.803 h 5.342 c 0.668,0 0.868,0.2 0.868,0.868 a 40.092,40.092 0 0 0 0,4.007 c 0,0.601 -0.2,0.802 -0.801,0.802 h -6.278 c -0.734,0 -1.001,0.2 -1.001,1.001 0.067,2.27 -0.267,2.004 2.003,2.004 h 6.01 c 0.601,0 0.868,0.2 0.801,0.8 -0.066,1.336 0,2.739 0,4.074 0,0.601 -0.2,0.802 -0.8,0.802 H 38.463 c -0.668,0 -0.801,-0.267 -0.801,-0.868 V 19.967 Z M 182.572,8.614 h 8.881 c 0.735,0 0.935,0.2 0.935,0.935 -0.066,1.403 0,2.805 0,4.14 0,0.535 -0.2,0.735 -0.734,0.735 h -3.873 c -0.668,0 -0.935,0.267 -0.935,0.935 V 30.25 c 0,0.802 -0.267,1.069 -1.069,1.002 a 111.315,111.315 0 0 0 -6.678,0 c -0.734,0 -1.001,-0.2 -1.001,-1.002 0.067,-4.941 0,-9.883 0.067,-14.824 0,-0.802 -0.2,-1.069 -1.002,-1.069 -1.202,0.067 -2.47,0 -3.673,0 -0.6,0 -0.801,-0.2 -0.801,-0.801 0,-1.402 0.067,-2.805 0,-4.14 0,-0.668 0.2,-0.868 0.868,-0.868 3.005,0.133 6.01,0.066 9.015,0.066 z m 81.202,4.408 c -1.002,0.2 -1.803,0.4 -2.604,0.534 -0.267,0.067 -0.468,0.133 -0.735,0.067 -0.267,-0.067 -0.467,-0.267 -0.735,-0.401 0.2,-0.2 0.334,-0.534 0.602,-0.601 0.934,-0.2 1.87,-0.4 2.804,-0.534 0.668,-0.067 1.002,-0.4 1.202,-1.069 0.468,-1.736 1.069,-3.405 1.603,-5.142 0.2,-0.534 0.467,-0.934 1.068,-1.001 1.27,-0.2 1.87,0.4 1.536,1.67 -0.4,1.335 -0.801,2.67 -1.202,4.073 -0.067,0.267 -0.133,0.467 -0.2,0.868 1.068,-0.067 2.07,-0.2 3.072,-0.267 0.868,0 1.736,0 2.537,0.133 2.27,0.468 3.406,1.937 3.206,4.274 -0.535,5.543 -2.939,10.217 -7.28,13.756 -2.003,1.67 -4.407,2.471 -7.078,2.07 -0.467,-0.066 -0.667,0.134 -0.801,0.535 -0.668,2.27 -1.402,4.54 -2.07,6.811 -0.334,1.068 0.067,1.67 1.135,2.003 l 2.204,0.601 c 0.267,0.067 0.534,0.267 0.801,0.401 v 0.267 c -0.4,0.067 -0.734,0.267 -1.135,0.2 -2.605,-0.066 -5.209,-0.2 -7.813,-0.333 -0.534,0 -1.069,0 -1.603,-0.067 -0.2,0 -0.334,-0.2 -0.467,-0.334 0.133,-0.134 0.267,-0.4 0.4,-0.468 0.2,-0.133 0.468,-0.133 0.735,-0.133 1.536,-0.067 2.337,-0.868 2.805,-2.337 1.803,-5.743 3.606,-11.553 5.409,-17.296 0.801,-2.47 1.536,-4.941 2.27,-7.412 0.134,-0.134 0.2,-0.4 0.334,-0.868 z m -1.536,14.624 c 0,1.67 0.4,2.337 1.336,2.604 0.935,0.2 1.803,0.134 2.604,-0.4 0.601,-0.468 1.202,-1.002 1.67,-1.603 2.67,-3.472 4.206,-7.48 5.008,-11.753 0.334,-1.87 -0.668,-3.339 -2.471,-3.806 a 9.706,9.706 0 0 0 -2.003,-0.2 c -1.47,0.066 -1.67,0.2 -2.137,1.669 l -3.206,10.618 c -0.333,1.135 -0.6,2.203 -0.8,2.871 z m 136.427,-1.803 c -0.133,0.334 -0.133,0.735 -0.333,0.935 -1.47,2.07 -3.406,3.673 -5.81,4.54 -0.601,0.201 -1.269,0.268 -1.87,0.268 -0.801,0 -1.068,-0.334 -0.935,-1.135 0.134,-0.668 0.468,-1.403 0.735,-2.004 1.87,-4.006 3.74,-7.946 5.542,-11.953 a 7.166,7.166 0 0 0 0.601,-2.27 c 0.067,-1.069 -0.734,-1.67 -1.736,-1.27 -0.6,0.201 -1.202,0.535 -1.603,1.003 -1.602,2.003 -3.138,4.006 -4.607,6.143 -2.204,3.272 -4.34,6.678 -5.943,10.284 -0.468,1.068 -0.869,1.269 -1.737,1.135 -0.534,-0.067 -0.868,-0.334 -0.734,-0.935 0.067,-0.467 0.2,-0.868 0.334,-1.335 1.67,-4.474 3.339,-9.015 5.008,-13.49 0.134,-0.333 0.267,-0.667 0.334,-1.001 0,-0.334 0,-0.801 -0.2,-1.002 -0.2,-0.133 -0.735,-0.133 -1.002,0 -0.601,0.4 -1.135,0.868 -1.603,1.403 -0.6,0.6 -1.068,1.268 -1.67,1.87 -0.133,0.133 -0.333,0.133 -0.533,0.2 -0.067,-0.2 -0.134,-0.401 -0.134,-0.668 a 0.51,0.51 0 0 1 0.134,-0.334 c 1.268,-1.803 2.737,-3.472 4.674,-4.674 0.467,-0.268 0.935,-0.468 1.47,-0.535 0.867,-0.2 1.602,0.334 1.602,1.202 0,0.868 0,1.803 -0.267,2.605 -0.735,2.137 -1.603,4.273 -2.404,6.344 -0.134,0.334 -0.2,0.667 -0.334,1.068 0.067,0.067 0.133,0.067 0.267,0.134 0.267,-0.401 0.534,-0.802 0.868,-1.202 1.47,-2.204 2.805,-4.541 4.407,-6.678 0.868,-1.202 2.204,-2.07 3.406,-2.938 0.534,-0.401 1.402,-0.535 2.137,-0.535 2.27,0.067 3.406,1.603 2.671,3.807 -0.534,1.736 -1.336,3.339 -2.137,5.008 -1.202,2.604 -2.537,5.142 -3.74,7.746 -0.133,0.267 0,0.668 0,1.002 0.334,0 0.802,0.134 1.002,-0.067 1.002,-0.801 1.937,-1.67 2.938,-2.47 0.268,-0.268 0.601,-0.468 0.869,-0.668 0.2,0.334 0.267,0.4 0.333,0.467 z m -74.056,-2.604 c -0.401,0.4 -0.735,0.801 -1.136,1.202 -2.003,2.203 -4.073,4.34 -6.544,5.943 -1.269,0.801 -2.537,1.536 -4.006,1.603 -1.336,0.066 -2.137,-0.601 -2.338,-1.937 -0.2,-1.536 0.067,-2.938 0.668,-4.274 2.404,-5.075 6.144,-8.748 11.286,-11.085 1.335,-0.6 2.804,-0.734 4.273,-0.534 1.403,0.2 1.603,0.067 2.27,-1.135 0.535,-1.002 1.203,-1.336 2.271,-1.136 0.802,0.134 1.069,0.401 0.735,1.202 -0.601,1.47 -1.269,2.872 -1.937,4.274 a 763.776,763.776 0 0 0 -4.875,10.752 c -0.133,0.267 -0.066,0.667 -0.066,0.934 0.334,0 0.734,0.134 1.001,-0.066 0.868,-0.601 1.67,-1.202 2.471,-1.937 0.735,-0.668 1.402,-1.469 2.137,-2.204 0.2,-0.2 0.534,-0.2 0.801,-0.333 -0.066,0.267 0,0.667 -0.133,0.868 -2.004,2.47 -4.274,4.674 -7.079,6.143 -0.467,0.267 -1.135,0.4 -1.67,0.4 -0.8,0.068 -1.268,-0.467 -0.934,-1.201 0.668,-1.803 1.402,-3.54 2.07,-5.342 0.267,-0.668 0.668,-1.336 1.002,-2.07 -0.134,0 -0.2,-0.067 -0.267,-0.067 z m 0.267,-8.147 c -0.534,0.2 -1.736,0.534 -2.671,1.068 -3.34,1.937 -5.944,4.675 -7.813,8.08 -0.468,0.802 -0.735,1.803 -0.935,2.672 -0.267,1.268 0.467,2.203 1.736,2.003 0.935,-0.134 1.87,-0.534 2.671,-1.002 3.473,-2.27 6.277,-5.142 8.48,-8.68 0.335,-0.535 0.602,-1.203 0.802,-1.804 0.534,-1.47 -0.133,-2.337 -2.27,-2.337 z m -31.653,3.138 c -0.067,4.475 -1.736,8.28 -5.008,11.353 -1.403,1.335 -3.005,2.27 -5.009,2.337 -1.67,0.067 -2.738,-0.668 -3.472,-2.07 -0.735,-1.603 -0.935,-3.34 -0.868,-5.075 0.133,-3.94 1.469,-7.48 4.207,-10.351 1.469,-1.536 3.138,-2.805 5.342,-3.139 1.603,-0.267 2.805,0.334 3.673,1.737 0.935,1.602 1.135,3.339 1.135,5.208 z m -12.287,10.084 c 0,1.002 0.133,2.003 1.135,2.47 1.002,0.535 2.003,0.268 2.738,-0.534 0.801,-0.8 1.536,-1.669 2.137,-2.67 1.803,-2.939 2.938,-6.144 3.74,-9.483 0.333,-1.403 0.734,-2.805 0.333,-4.274 -0.467,-1.736 -1.736,-2.337 -3.205,-1.336 -0.868,0.601 -1.736,1.403 -2.27,2.27 -2.672,4.208 -4.007,8.816 -4.608,13.557 z m -58.23,-3.205 c 0.2,-5.276 2.203,-9.683 6.61,-12.755 1.069,-0.735 2.271,-1.202 3.607,-1.202 1.535,0 2.537,0.868 3.205,2.204 0.801,1.669 1.068,3.539 0.935,5.409 -0.267,4.607 -2.137,8.48 -5.743,11.419 -1.269,1.001 -2.671,1.67 -4.274,1.736 -1.67,0.067 -2.805,-0.601 -3.472,-2.137 -0.735,-1.47 -0.868,-3.005 -0.868,-4.674 z m 2.003,3.071 c 0,1.202 0.133,2.137 1.202,2.605 1.068,0.467 2.003,0.2 2.805,-0.601 0.734,-0.735 1.469,-1.603 2.003,-2.471 2.003,-3.272 3.205,-6.878 4.073,-10.618 0.267,-1.202 0.401,-2.47 -0.066,-3.673 -0.468,-1.135 -1.47,-1.602 -2.605,-1.135 -0.534,0.2 -1.135,0.534 -1.469,0.935 -1.002,1.336 -2.07,2.671 -2.805,4.14 -1.669,3.54 -2.67,7.212 -3.138,10.818 z m 137.896,-3.005 c 0.134,-5.208 2.137,-9.549 6.478,-12.62 a 6.141,6.141 0 0 1 1.87,-0.936 c 2.537,-0.935 4.607,0 5.409,2.605 1.135,3.606 0.734,7.145 -0.869,10.484 -1.268,2.738 -3.071,5.075 -5.81,6.477 -0.867,0.401 -1.869,0.668 -2.804,0.735 -1.603,0.2 -2.671,-0.601 -3.406,-2.003 -0.6,-1.202 -0.868,-2.605 -0.868,-4.742 z m 12.287,-9.75 c -0.066,-1.268 -0.066,-2.537 -1.335,-3.071 -1.269,-0.534 -2.27,0.133 -3.139,1.002 a 19.848,19.848 0 0 0 -1.803,2.337 25.497,25.497 0 0 0 -3.005,7.546 c -0.467,1.803 -0.801,3.673 -0.935,5.542 -0.133,1.87 1.67,2.805 3.273,1.87 0.6,-0.4 1.268,-0.868 1.602,-1.469 1.002,-1.536 1.937,-3.139 2.671,-4.808 1.336,-2.871 2.27,-5.81 2.671,-8.948 z m -72.053,7.88 0.801,-1.402 c 1.336,-2.337 2.672,-4.674 4.074,-7.012 0.6,-1.001 1.402,-1.87 2.204,-2.737 0.4,-0.401 1.001,-0.735 1.535,-0.935 1.27,-0.334 2.137,0.267 2.204,1.602 0,0.735 0,1.536 -0.2,2.204 -0.134,0.467 -0.534,1.002 -0.935,1.269 -0.868,0.534 -1.536,0.133 -1.67,-0.935 -0.066,-0.4 -0.267,-0.801 -0.4,-1.202 -0.4,0.267 -0.935,0.4 -1.135,0.734 -1.202,1.603 -2.404,3.206 -3.34,4.942 -2.003,3.606 -3.94,7.279 -5.876,10.885 -0.2,0.334 -0.6,0.734 -0.935,0.734 -0.935,0.134 -1.269,-0.333 -1.001,-1.202 1.268,-4.54 2.47,-9.081 3.74,-13.622 0.133,-0.535 0.467,-1.202 -0.134,-1.603 -0.601,-0.334 -1.069,0.267 -1.403,0.668 -0.734,0.868 -1.402,1.803 -2.07,2.67 -0.334,0.402 -0.668,0.735 -1.002,1.136 -0.066,0 -0.2,-0.067 -0.267,-0.067 0,-0.334 -0.133,-0.667 0,-0.935 1.536,-2.604 3.34,-5.075 5.81,-6.944 0.2,-0.134 0.468,-0.268 0.735,-0.334 0.935,-0.334 1.67,0.066 1.602,1.068 -0.133,1.603 -0.334,3.205 -0.667,4.741 -0.401,1.803 -1.002,3.606 -1.536,5.41 -0.067,0.267 -0.134,0.467 -0.2,0.734 -0.067,0.134 0,0.134 0.066,0.134 z m -56.227,0 c 0.2,-0.333 0.4,-0.6 0.534,-0.934 1.536,-2.605 3.005,-5.21 4.541,-7.813 0.534,-0.869 1.336,-1.67 2.07,-2.471 0.668,-0.735 1.536,-1.202 2.605,-0.802 0.4,0.134 0.934,0.601 1.001,0.935 0.067,1.002 0.067,2.004 -0.133,3.005 -0.067,0.401 -0.535,0.868 -0.935,1.069 -0.868,0.467 -1.47,0.067 -1.603,-0.868 -0.067,-0.2 0,-0.401 -0.067,-0.535 -0.066,-0.267 -0.133,-0.6 -0.334,-0.667 -0.2,-0.067 -0.6,0.066 -0.734,0.267 -0.668,0.734 -1.402,1.469 -1.87,2.27 -2.404,4.207 -4.808,8.481 -7.212,12.755 -0.267,0.4 -0.467,0.868 -0.668,1.269 -0.334,0.935 -0.935,0.935 -1.602,0.734 -0.735,-0.267 -0.535,-0.935 -0.401,-1.402 a 779,779 0 0 1 3.74,-13.356 c 0.133,-0.534 0.534,-1.202 -0.134,-1.602 -0.668,-0.334 -1.068,0.267 -1.47,0.734 -0.8,0.935 -1.468,1.937 -2.27,2.938 -0.267,0.334 -0.534,0.535 -0.8,0.868 -0.068,0 -0.201,-0.066 -0.268,-0.066 0,-0.267 -0.134,-0.668 0,-0.868 1.536,-2.605 3.339,-5.009 5.743,-6.945 0.267,-0.2 0.534,-0.334 0.868,-0.468 0.935,-0.334 1.67,0.067 1.536,1.069 -0.267,2.137 -0.601,4.34 -1.069,6.477 -0.267,1.269 -0.734,2.47 -1.135,3.74 -0.067,0.2 -0.133,0.467 -0.2,0.668 0.133,-0.067 0.2,0 0.267,0 z m 94.29,-9.75 h -2.604 c -0.534,0 -0.868,0 -0.868,-0.734 0,-0.667 0.334,-0.801 0.935,-0.801 0.868,0 1.736,0.067 2.538,0 0.267,0 0.6,-0.267 0.734,-0.534 0.534,-1.269 1.002,-2.538 1.47,-3.807 0.333,-0.8 1.802,-1.202 2.403,-0.6 0.2,0.2 0.2,0.667 0.134,0.934 -0.334,1.069 -0.735,2.07 -1.135,3.072 -0.067,0.267 -0.2,0.534 -0.334,0.935 h 3.472 c 0.534,0 0.868,0.2 0.801,0.801 0,0.468 -0.2,0.735 -0.734,0.735 h -3.339 c -0.467,0 -0.735,0.133 -0.935,0.6 -1.603,4.275 -3.205,8.549 -4.808,12.89 -0.134,0.266 -0.134,0.8 0,0.934 0.2,0.2 0.668,0.2 0.935,0.067 0.668,-0.334 1.336,-0.735 1.87,-1.269 0.801,-0.801 1.536,-1.67 2.337,-2.538 0.2,-0.2 0.467,-0.4 0.735,-0.6 0.066,0.066 0.2,0.133 0.267,0.2 -0.134,0.4 -0.134,0.801 -0.334,1.135 -2.004,2.871 -4.474,5.142 -7.546,6.745 -0.134,0.066 -0.267,0.133 -0.4,0.133 -0.535,-0.067 -1.203,0.067 -1.47,-0.2 -0.267,-0.2 -0.2,-0.935 -0.067,-1.403 0.4,-1.335 0.935,-2.67 1.403,-4.006 1.402,-3.873 2.804,-7.747 4.14,-11.686 0.2,-0.334 0.267,-0.601 0.4,-1.002 z m 17.029,12.756 c -0.067,0.267 -0.134,0.534 -0.267,0.734 -2.07,2.137 -4.274,3.94 -7.212,4.741 -0.067,0 -0.134,0.067 -0.134,0.067 -0.668,0.067 -1.469,0.267 -1.803,-0.4 -0.2,-0.468 -0.133,-1.27 0.134,-1.804 1.87,-3.94 3.873,-7.88 5.743,-11.753 0.334,-0.734 0.734,-1.469 0.935,-2.27 0.066,-0.267 -0.067,-0.668 -0.134,-1.068 -0.334,0.066 -0.668,0.066 -0.935,0.267 -0.801,0.534 -1.603,1.202 -2.404,1.736 -0.267,0.2 -0.467,0.334 -0.734,0.467 -0.2,0.067 -0.401,0 -0.668,0 0,-0.2 0,-0.534 0.133,-0.667 2.004,-1.803 3.94,-3.74 6.478,-4.808 0.6,-0.268 1.202,-0.535 1.803,0 0.534,0.534 0.534,1.202 0.267,1.87 -0.735,1.802 -1.536,3.539 -2.337,5.342 l -4.207,8.814 c -0.067,0.134 -0.2,0.267 -0.2,0.468 0,0.267 -0.067,0.734 0.133,0.868 0.133,0.133 0.668,0.133 0.868,0.067 1.068,-0.668 2.137,-1.403 3.205,-2.07 0.401,-0.268 0.735,-0.468 1.136,-0.668 0.066,-0.067 0.133,0 0.2,0.067 z m -151.786,0.467 c 0.467,-4.942 2.203,-9.55 5.943,-13.289 1.803,-1.803 4.073,-2.671 6.61,-2.204 0.335,0.067 0.669,0.134 1.002,0.268 1.069,0.4 1.536,1.402 1.203,2.337 -0.268,0.734 -1.403,1.068 -2.338,0.534 a 6.396,6.396 0 0 1 -1.67,-1.336 c -1.134,-1.068 -1.936,-1.135 -2.937,0 -0.869,1.002 -1.603,2.204 -2.204,3.406 -1.269,2.538 -2.137,5.209 -2.671,8.014 -0.134,0.8 -0.067,1.669 0.067,2.47 0.333,1.603 1.669,2.338 3.205,1.737 0.734,-0.334 1.402,-0.869 2.07,-1.403 0.4,-0.334 0.735,-0.868 1.135,-1.269 0.134,-0.133 0.4,-0.133 0.601,-0.066 0.067,0.066 0.2,0.4 0.067,0.534 -1.536,2.137 -3.205,4.14 -5.743,5.142 -2.137,0.801 -3.74,-0.2 -4.14,-2.605 a 58.307,58.307 0 0 1 -0.2,-2.27 z M 358.397,4.207 c -1.001,0 -2.003,-1.002 -2.003,-2.003 0,-1.002 1.002,-1.937 2.003,-1.937 1.069,0 2.004,0.935 2.004,2.003 0,1.002 -1.002,1.937 -2.004,1.937 z"
       id="path23"
       style="fill:#ffffff" />
  </g>
</svg>
